<svg width="128" height="128" viewBox="0 0 128 128" fill="none" xmlns="http://www.w3.org/2000/svg">
<path d="M51.5 112.44C63.21 101.05 81.42 83.04 85.32 78.97C90.17 73.92 88.72 69.8 86.66 65.26C85.99 63.77 74.99 38.93 67.92 22.9C68.21 22.76 70.9 20.86 71.56 20.57C73.66 19.63 75.04 21.21 75.97 23.17C76.65 24.62 92.48 70.15 96.34 80.49C96.97 82.17 98.48 84.37 97.63 86.22C96.68 88.29 92.84 89.58 91 90.71C88.67 92.13 86.28 93.45 83.87 94.72C79.11 97.23 74.26 99.58 69.6 102.27C64 105.5 58.33 108.56 52.7 111.72C52.31 111.95 51.91 112.2 51.5 112.44Z" fill="white"/>
<path d="M110.92 101.1C110.15 101.43 109.31 101.66 108.79 101.86C98.0198 105.99 86.7898 108.7 75.6798 111.76C69.4698 113.47 63.2798 115.29 57.1098 117.13C56.2298 117.4 55.0798 117.77 53.7998 118.19C59.0898 115.26 64.4098 112.39 69.6398 109.36C73.5998 107.07 77.6498 104.97 81.6898 102.83C86.5298 100.27 91.3498 97.66 95.9398 94.67C98.0898 93.26 100.99 92.57 102.64 90.48C104.34 88.34 104.24 85.23 103.48 82.74C99.8498 71.02 96.1998 59.29 91.6198 47.91C89.4498 42.5 87.2698 37.09 85.6098 31.5C85.3498 30.64 85.0798 29.68 84.8098 28.68C89.2598 26.15 88.7098 27.85 90.7398 32.49C94.1498 40.28 97.2998 48 99.8598 56.11C100.63 58.52 101.37 60.92 102.12 63.33C104.16 69.87 106.21 76.41 108.25 82.95C109.19 85.98 110.14 89.02 111.1 92.05C111.92 94.76 114.64 99.52 110.92 101.1Z" fill="white"/>
<path d="M17.21 40.16C15.46 42.27 11.53 47 11.13 47.48C8.10997 51.06 7.95997 55.14 8.45997 57.87C9.37997 62.93 21.14 106.99 27.88 121.27C28.6 122.81 29.45 123.86 30.39 124.55C35.76 131.6 52.8 124.71 58.78 123.1C67.51 120.74 76.33 118.64 85.02 116.09C93.74 113.53 102.26 110.59 110.9 107.8C113.63 106.92 116.8 105.85 118.47 103.34C120.53 100.25 119.79 95.95 118.79 92.3C116.69 84.69 113.74 77.36 111.1 69.93C107.65 60.22 104.78 50.3 100.83 40.77C99.59 37.77 98.31 34.8 96.98 31.84C95.92 29.48 95.31 26.9 94.06 24.63C92.12 21.15 90.33 20.6 86.56 21.99C85.63 22.34 84.02 23.07 83.06 22.49C82.33 22.05 82.2 20.8 81.94 20.06C81.43 18.61 80.82 16.87 79.94 15.59C79.61 15.11 79.25 14.55 78.88 14.11C78.38 13.52 75.34 12.1 70.31 14.23C69.09 14.75 54.2 23.71 54.2 23.71L17.21 40.16ZM51.5 112.44C36.77 89.12 42.29 49.37 67.93 22.9C68.22 22.76 70.91 20.86 71.57 20.57C73.67 19.63 75.05 21.21 75.98 23.17C76.66 24.62 92.49 70.15 96.35 80.49C96.98 82.17 98.49 84.37 97.64 86.22C96.69 88.29 92.85 89.58 91.01 90.71C88.68 92.13 86.29 93.45 83.88 94.72C79.12 97.23 74.27 99.58 69.61 102.27C64.01 105.5 58.34 108.56 52.71 111.72C52.31 111.95 51.91 112.2 51.5 112.44ZM110.92 101.1C110.15 101.43 109.31 101.66 108.79 101.86C98.02 105.99 86.79 108.7 75.68 111.76C69.47 113.47 63.28 115.29 57.11 117.13C56.23 117.4 55.08 117.77 53.8 118.19C59.09 115.26 64.41 112.39 69.64 109.36C73.6 107.07 77.65 104.97 81.69 102.83C86.53 100.27 91.35 97.66 95.94 94.67C98.09 93.26 100.99 92.57 102.64 90.48C104.34 88.34 104.24 85.23 103.48 82.74C99.85 71.02 96.2 59.29 91.62 47.91C89.45 42.5 87.27 37.09 85.61 31.5C85.35 30.64 85.08 29.68 84.81 28.68C89.26 26.15 88.71 27.85 90.74 32.49C94.15 40.28 97.3 48 99.86 56.11C100.63 58.52 101.37 60.92 102.12 63.33C104.16 69.87 106.21 76.41 108.25 82.95C109.19 85.98 110.14 89.02 111.1 92.05C111.92 94.76 114.64 99.52 110.92 101.1Z" fill="#2F2F2F"/>
<path d="M45.07 118.27L54.89 109.14C66.45 97.85 81.78 82.67 85.32 78.98C90.17 73.93 88.72 69.81 86.66 65.27C86.22 64.29 60.98 6.84 60.37 5.55C58.48 1.59 55.96 -0.219997 53.52 0.500003C52.7 0.740003 51.94 1.09 51.22 1.52C50.04 2.23 47.57 4.46 45.32 6.62C43.85 8.02 26.7 28.71 17.21 40.16C17.21 40.16 41.35 114.56 42.17 117.36C42.99 120.17 45.07 118.27 45.07 118.27Z" fill="#FCC21B"/>
<path d="M50.3002 35.27C50.8402 34.82 51.4402 34.38 51.9502 33.89C52.7302 33.13 54.2102 31.84 54.0702 30.66C54.0002 30 53.6602 29.48 53.1402 29.21C52.9102 29.09 52.6302 29.02 52.3202 29.01C50.4602 28.98 48.4402 30.64 47.1402 31.78C46.2402 32.56 45.2202 33.22 44.2902 33.95C42.3202 35.5 40.6702 37.46 38.8102 39.15C37.1002 40.72 35.7702 42.63 34.2502 44.36C32.7502 46.06 31.0702 47.57 29.6402 49.34C29.1202 49.98 28.5802 50.5 28.6902 51.37C28.8002 52.23 29.4702 53.27 30.2702 53.63C31.5402 54.2 32.6602 52.56 33.4402 51.85C39.3402 46.54 44.1802 40.37 50.3002 35.27ZM55.5202 38.51C53.8502 39.3 52.0602 41.26 51.3502 41.96C48.9402 44.33 45.9502 46.4 43.7302 48.89C42.3902 50.39 41.0302 51.88 39.5302 53.22C37.8202 54.74 35.6102 56.25 34.4102 58.23C33.6502 59.47 33.4002 61.85 35.2002 62.36C37.4602 63.01 38.6402 59.7 40.0202 58.5C42.0602 56.72 44.3502 55.22 46.2902 53.31C48.5802 51.04 50.6902 48.6 52.9802 46.32C54.2402 45.07 58.7602 42.42 58.7502 40.6C58.7502 39.83 58.5102 39.35 58.0102 38.76C57.3802 38 56.4702 38.07 55.5202 38.51Z" fill="#2F2F2F"/>
</svg>
